<svg width="2100" height="2560" viewBox="0 0 2100 2560" version="1.1" xmlns="http://www.w3.org/2000/svg" xmlns:xlink="http://www.w3.org/1999/xlink" xmlns:figma="http://www.figma.com/figma/ns">
<title>NoobScroll</title>
<desc>Created using Figma</desc>
<g id="Canvas" transform="translate(-4272 -1524)" figma:type="canvas">
<mask id="mask0_alpha" mask-type="alpha">
<path d="M 4272 1524L 6372 1524L 6372 4084L 4272 4084L 4272 1524Z" fill="#FFFFFF"/>
</mask>
<g id="NoobScroll" mask="url(#mask0_alpha)" figma:type="frame">
<g id="Mouse" figma:type="frame">
<g id="Vector" figma:type="vector">
<use xlink:href="#path0_stroke" transform="translate(4457 1574)" fill="#FFFFFF"/>
</g>
<g id="Line" figma:type="line">
<use xlink:href="#path1_stroke" transform="matrix(6.12323e-17 1 -1 6.12323e-17 5272 2024)" fill="#FFFFFF"/>
</g>
</g>
<g id="Logo" figma:type="frame">
<g id="Vector" figma:type="vector">
<use xlink:href="#path2_fill" transform="translate(5337.68 2804)" fill="#FFFFFF"/>
</g>
<g id="Vector" figma:type="vector">
<use xlink:href="#path3_fill" transform="translate(5214.13 2828.43)" fill="#FFFFFF"/>
</g>
<g id="Vector" figma:type="vector">
<use xlink:href="#path4_fill" transform="translate(5069 2878.91)" fill="#FFFFFF"/>
</g>
</g>
</g>
</g>
<defs>
<path id="path0_stroke" d="M 545.332 50L 1184.36 50L 1184.36 -50L 545.332 -50L 545.332 50ZM 1184.36 50C 1457.92 50 1679.69 271.768 1679.69 545.332L 1779.69 545.332C 1779.69 216.539 1513.15 -50 1184.36 -50L 1184.36 50ZM 1679.69 545.332L 1679.69 1914.67L 1779.69 1914.67L 1779.69 545.332L 1679.69 545.332ZM 1679.69 1914.67C 1679.69 2188.23 1457.92 2410 1184.36 2410L 1184.36 2510C 1513.15 2510 1779.69 2243.46 1779.69 1914.67L 1679.69 1914.67ZM 1184.36 2410L 545.332 2410L 545.332 2510L 1184.36 2510L 1184.36 2410ZM 545.332 2410C 271.768 2410 50 2188.23 50 1914.67L -50 1914.67C -50 2243.46 216.539 2510 545.332 2510L 545.332 2410ZM 50 1914.67L 50 545.332L -50 545.332L -50 1914.67L 50 1914.67ZM 50 545.332C 50 271.768 271.768 50 545.332 50L 545.332 -50C 216.539 -50 -50 216.539 -50 545.332L 50 545.332Z"/>
<path id="path1_stroke" d="M 0 0L 362 0L 362 -100L 0 -100L 0 0Z"/>
<path id="path2_fill" d="M 16.0687 21.0486C -2.80443 51.0689 -4.65853 88.3509 8.43766 121.508C 22.2471 156.7 50.547 184.31 83.5742 197.399C 84.9357 197.946 86.2973 198.436 87.6782 198.94C 88.281 199.136 88.8776 199.361 89.4871 199.557C 91.4321 200.215 93.3641 200.986 95.374 201.392C 186.646 220.453 211.401 150.77 217.992 140.514C 196.306 174.262 159.862 182.363 115.147 170.632C 111.615 169.702 107.733 168.325 104.329 167.021C 99.9628 165.34 95.6607 163.422 91.4809 161.252C 83.5407 157.131 75.9724 152.125 68.9564 146.396C 28.9423 113.583 4.08618 50.9819 30.1957 1.04237e-06"/>
<path id="path3_fill" d="M 24.0432 39.9128C -7.97121 89.7081 -6.23393 156.366 18.7399 209.03C 22.9281 217.859 27.6349 226.422 32.8993 234.579C 37.6969 242.007 43.0133 250.851 49.3798 256.821C 51.6879 259.568 54.0997 262.245 56.5631 264.879C 57.1851 265.566 57.8208 266.225 58.4562 266.898C 60.8486 269.406 63.2798 271.873 65.7952 274.27C 65.8987 274.354 65.9897 274.465 66.0933 274.55C 66.1198 274.579 66.1464 274.591 66.1643 274.622C 68.9456 277.257 71.8175 279.794 74.7354 282.288C 75.384 282.82 76.0256 283.381 76.6804 283.928C 79.6044 286.353 82.5869 288.735 85.6467 291.005C 85.7376 291.077 85.8153 291.146 85.9063 291.216C 87.2548 292.225 88.6293 293.164 89.9972 294.131C 90.6518 294.593 91.2745 295.084 91.9358 295.518C 94.1207 297.032 96.3314 298.503 98.5811 299.919C 98.8991 300.129 99.2098 300.312 99.5211 300.507C 101.46 301.713 103.424 302.904 105.395 304.053C 106.082 304.473 106.783 304.838 107.483 305.23C 108.844 306.001 110.206 306.786 111.593 307.529C 111.8 307.641 112.015 307.739 112.215 307.838C 115.036 309.337 117.882 310.781 120.786 312.154C 121.408 312.449 122.051 312.715 122.679 312.995C 125 314.06 127.347 315.097 129.707 316.078C 130.706 316.485 131.717 316.877 132.715 317.27C 134.855 318.125 137.001 318.909 139.166 319.694C 140.145 320.031 141.105 320.381 142.084 320.703C 145.163 321.741 148.204 323.044 151.413 323.619C 316.712 353.218 354.872 215.662 354.872 215.662C 320.472 269.213 253.855 294.761 182.765 274.818C 179.608 273.921 176.496 272.94 173.403 271.889C 172.456 271.581 171.529 271.244 170.589 270.908C 168.391 270.137 166.207 269.324 164.041 268.469C 163.049 268.077 162.057 267.684 161.085 267.278C 158.712 266.297 156.365 265.274 154.037 264.209C 153.402 263.914 152.76 263.648 152.138 263.34C 149.22 261.966 146.348 260.523 143.515 259.009C 142.056 258.238 140.624 257.425 139.191 256.627C 138.361 256.164 137.525 255.702 136.695 255.239C 134.853 254.16 133.025 253.039 131.223 251.903C 130.795 251.637 130.347 251.385 129.913 251.105C 127.676 249.689 125.472 248.232 123.287 246.732C 122.613 246.269 121.964 245.765 121.29 245.288C 119.851 244.279 118.411 243.256 116.998 242.219C 113.951 239.949 110.988 237.566 108.064 235.155C 107.39 234.58 106.716 234.02 106.054 233.445C 74.9364 206.89 50.2715 170.604 38.5445 129.455C 26.2545 86.78 28.9048 38.875 50.1971 -2.05145e-06"/>
<path id="path4_fill" d="M 31.7526 47.3686C -12.5157 116.14 -7.00487 205.613 26.8123 278.684C 27.6163 280.436 28.459 282.16 29.2889 283.884C 29.8207 284.977 30.3198 286.098 30.8708 287.177C 31.1822 287.822 31.5321 288.453 31.8563 289.069C 32.4332 290.233 33.0233 291.34 33.6197 292.475C 34.67 294.479 35.7463 296.469 36.8484 298.46C 37.4579 299.553 38.0608 300.646 38.6897 301.739C 39.9086 303.869 41.1599 305.972 42.437 308.074C 42.9688 308.971 43.4873 309.868 44.0319 310.737C 45.7954 313.582 47.5978 316.413 49.4583 319.202C 49.5045 319.273 49.5552 319.356 49.6137 319.425C 49.9058 319.874 50.2298 320.308 50.5278 320.757C 52.1357 323.153 53.7954 325.522 55.4746 327.863C 56.0907 328.718 56.7129 329.572 57.3353 330.427C 58.833 332.46 60.3565 334.478 61.9061 336.496C 62.483 337.252 63.0666 338.009 63.65 338.752C 65.7312 341.401 67.8512 344.036 70.0165 346.614C 70.0563 346.655 70.1075 346.712 70.1459 346.754C 70.2369 346.866 70.3145 346.936 70.3922 347.048C 72.5058 349.543 74.6712 351.982 76.8627 354.42C 77.5434 355.177 78.2372 355.934 78.9374 356.677C 80.636 358.527 82.3605 360.349 84.1046 362.157C 84.8112 362.885 85.5115 363.628 86.2182 364.329C 88.5456 366.698 90.8991 369.024 93.2979 371.295C 93.3377 371.335 93.3689 371.366 93.4081 371.393C 93.8164 371.785 94.238 372.15 94.64 372.528C 96.7535 374.504 98.906 376.466 101.071 378.401C 101.953 379.171 102.848 379.928 103.736 380.699C 105.506 382.227 107.295 383.74 109.097 385.226C 110.051 386.011 111.004 386.796 111.963 387.58C 113.953 389.164 115.957 390.72 117.98 392.247C 118.719 392.822 119.432 393.383 120.171 393.929C 120.378 394.084 120.567 394.237 120.774 394.392C 122.693 395.821 124.657 397.195 126.615 398.568C 127.458 399.171 128.295 399.802 129.144 400.39C 132.152 402.451 135.206 404.483 138.292 406.445C 139.128 406.964 139.977 407.468 140.82 407.987C 143.089 409.402 145.372 410.789 147.686 412.149C 148.937 412.878 150.221 413.564 151.485 414.265C 153.119 415.19 154.74 416.129 156.4 417.026C 156.775 417.223 157.165 417.419 157.534 417.615C 158.202 417.965 158.876 418.301 159.544 418.666C 162.118 419.997 164.711 421.301 167.331 422.562C 167.888 422.828 168.426 423.095 168.977 423.361C 171.979 424.776 175.007 426.136 178.061 427.439C 178.793 427.761 179.532 428.07 180.271 428.378C 183.098 429.555 185.964 430.719 188.842 431.812C 189.206 431.952 189.556 432.078 189.919 432.218C 193.076 433.409 196.266 434.516 199.475 435.595C 200.24 435.834 201.011 436.1 201.783 436.338C 205.051 437.403 208.28 438.679 211.651 439.351C 425.742 481.551 487.93 300.292 487.93 300.292C 435.701 373.84 342.99 393.237 255.149 371.642C 251.823 370.829 248.594 369.707 245.346 368.67C 244.523 368.404 243.712 368.138 242.902 367.871C 239.731 366.82 236.587 365.713 233.462 364.55C 233.034 364.382 232.6 364.214 232.166 364.045C 229.365 362.98 226.596 361.859 223.841 360.71C 223.063 360.373 222.285 360.051 221.507 359.715C 218.486 358.425 215.484 357.08 212.521 355.678C 211.912 355.398 211.328 355.104 210.725 354.823C 208.177 353.576 205.655 352.315 203.146 351.011C 202.42 350.633 201.694 350.269 200.955 349.876C 198.984 348.837 197.035 347.729 195.091 346.65C 193.79 345.909 192.468 345.209 191.177 344.434C 188.803 343.062 186.471 341.633 184.15 340.175C 183.364 339.698 182.568 339.239 181.776 338.745C 178.69 336.782 175.642 334.75 172.625 332.689C 171.791 332.115 170.979 331.501 170.155 330.909C 167.967 329.382 165.79 327.827 163.644 326.231C 162.932 325.708 162.247 325.152 161.546 324.635C 159.475 323.05 157.425 321.449 155.391 319.824C 154.466 319.084 153.558 318.337 152.661 317.597C 150.796 316.053 148.943 314.497 147.105 312.901C 146.275 312.186 145.445 311.472 144.629 310.757C 142.295 308.683 139.986 306.594 137.711 304.45C 137.471 304.226 137.212 304.002 136.952 303.764C 134.489 301.423 132.07 299.026 129.678 296.616C 128.984 295.901 128.31 295.2 127.629 294.486C 125.859 292.664 124.115 290.828 122.404 288.95C 121.717 288.207 121.029 287.478 120.355 286.735C 118.177 284.325 116.037 281.886 113.943 279.406C 113.839 279.279 113.729 279.168 113.626 279.041C 111.408 276.42 109.243 273.744 107.123 271.039C 106.546 270.296 105.988 269.581 105.417 268.853C 103.836 266.792 102.267 264.704 100.737 262.602C 100.163 261.844 99.5893 261.069 99.021 260.288C 97.178 257.705 95.3776 255.128 93.6143 252.51C 44.8459 180.609 27.326 81.4413 66.3044 -5.0349e-06"/>
</defs>
</svg>
